<?xml version="1.0" standalone="no"?>
<!DOCTYPE svg PUBLIC "-//W3C//DTD SVG 20010904//EN"
 "http://www.w3.org/TR/2001/REC-SVG-20010904/DTD/svg10.dtd">
<svg version="1.0" xmlns="http://www.w3.org/2000/svg"
 width="791.000000pt" height="1280.000000pt" viewBox="0 0 791.000000 1280.000000"
 preserveAspectRatio="xMidYMid meet">
<metadata>
Created by potrace 1.15, written by Peter Selinger 2001-2017
</metadata>
<g transform="translate(0.000000,1280.000000) scale(0.100000,-0.100000)"
fill="#000000" stroke="none">
<path d="M3849 12293 c-22 -9 -47 -12 -74 -7 -208 37 -755 -148 -1151 -391
-239 -146 -483 -357 -637 -550 -44 -55 -83 -99 -86 -98 -58 16 -60 16 -76 -24
-9 -21 -17 -49 -17 -62 0 -13 -22 -60 -49 -105 -63 -105 -134 -273 -150 -356
-6 -36 -18 -72 -26 -81 -26 -31 -92 -243 -109 -351 -10 -69 -21 -108 -29 -108
-6 0 -17 -17 -23 -39 -15 -50 -15 -71 1 -71 36 -1 39 -15 23 -101 -22 -120
-43 -280 -63 -464 -19 -185 -24 -742 -6 -837 5 -32 6 -58 1 -58 -4 0 -8 -12
-8 -26 0 -14 -12 -41 -26 -59 -20 -27 -35 -77 -68 -222 -48 -217 -51 -174 37
-492 47 -171 69 -232 90 -260 23 -29 27 -42 22 -69 -10 -52 58 -269 94 -302
21 -19 39 -60 75 -177 90 -287 81 -271 246 -427 80 -75 147 -145 150 -154 3
-9 16 -37 28 -62 l23 -45 -35 -90 c-20 -50 -32 -91 -26 -93 5 -2 10 -12 10
-21 0 -10 16 -39 36 -65 19 -25 33 -50 30 -54 -3 -5 -19 -7 -36 -4 -23 3 -30
1 -30 -13 0 -15 -8 -16 -64 -10 l-63 7 -7 -88 c-4 -49 -10 -103 -13 -121 l-5
-31 66 -7 c45 -5 66 -12 66 -21 0 -9 20 -15 60 -20 l60 -7 -1 -36 c0 -20 -30
-371 -67 -781 l-68 -745 -59 -3 c-33 -2 -63 -9 -67 -15 -5 -8 -28 -11 -66 -9
l-59 4 -6 -34 c-3 -18 -9 -70 -13 -115 l-6 -82 61 -7 c38 -4 61 -11 61 -19 0
-12 51 -25 102 -25 24 0 27 -3 23 -27 -18 -116 -16 -145 11 -180 14 -19 24
-36 23 -38 -2 -2 -92 -33 -199 -70 -303 -103 -388 -156 -620 -389 -95 -96
-141 -136 -158 -136 -39 0 -98 -37 -131 -82 -32 -43 -56 -111 -46 -128 3 -5
-18 -41 -47 -81 l-52 -71 23 -19 c41 -33 70 -34 153 -4 l78 27 46 -38 c44 -35
45 -38 25 -45 -11 -5 -21 -12 -21 -17 0 -5 -46 -12 -102 -15 -85 -4 -121 -11
-207 -42 -117 -41 -145 -58 -314 -192 l-118 -93 -112 0 c-62 0 -122 -3 -134
-6 l-23 -6 0 -1069 0 -1069 3955 0 3955 0 0 693 c0 517 -3 696 -12 705 -6 6
-12 44 -13 86 -1 93 -28 140 -101 176 -27 14 -53 31 -57 38 -18 28 -55 56
-104 79 -28 13 -58 34 -67 48 -19 28 -98 85 -120 85 -8 0 -24 13 -36 30 -23
32 -101 90 -121 90 -7 0 -27 18 -46 39 -18 22 -58 51 -88 66 -30 14 -59 34
-65 45 -6 11 -65 61 -132 111 -119 91 -217 149 -250 149 -10 0 -33 29 -59 72
-58 100 -178 200 -355 299 -19 10 -91 106 -199 265 -132 193 -172 259 -178
294 -5 25 -8 50 -7 55 2 31 7 63 14 86 11 39 -19 89 -111 189 -96 103 -113
128 -143 205 -15 39 -41 78 -73 112 -44 45 -61 55 -138 80 -82 26 -89 30 -93
58 -3 17 -13 80 -22 141 l-17 112 68 98 c38 55 74 104 81 109 6 6 156 219 332
475 l320 465 22 225 23 225 58 84 c52 75 58 88 53 120 -4 28 1 51 21 94 l28
58 -18 59 -18 60 31 67 c40 89 57 143 72 229 11 63 19 78 65 133 45 53 56 76
88 178 20 65 53 186 73 268 25 100 45 161 61 183 18 24 32 71 54 185 46 233
72 433 59 457 -8 15 -7 26 6 45 26 39 13 124 -50 324 -43 139 -60 179 -85 205
-17 18 -31 42 -31 54 0 12 -3 22 -7 22 -5 0 -8 118 -9 263 -1 207 -6 295 -23
420 -11 87 -21 189 -21 226 0 150 -74 482 -173 781 l-55 165 21 17 21 16 -24
51 c-13 28 -29 51 -35 51 -7 0 -27 42 -45 93 -44 123 -121 267 -186 346 -30
36 -52 67 -49 69 8 8 -45 102 -58 102 -7 0 -23 -7 -35 -16 -21 -15 -24 -14
-41 7 -10 13 -17 29 -14 36 3 6 -10 33 -27 58 -30 43 -33 45 -53 32 -20 -13
-27 -9 -112 70 -280 262 -652 472 -1040 586 -323 95 -629 132 -683 83 -12 -10
-22 -12 -28 -6 -22 22 -70 28 -105 13z m2072 -6189 c-11 -137 -14 -147 -43
-189 l-31 -44 -39 20 c-21 11 -38 26 -38 34 0 8 -10 20 -22 26 -13 6 -24 13
-26 14 -2 2 31 61 73 132 72 121 126 186 134 162 2 -6 -2 -76 -8 -155z m-3041
-274 c0 -16 -2 -30 -4 -30 -3 0 -14 14 -26 30 l-21 30 25 0 c22 0 26 -4 26
-30z m340 -31 c0 -12 10 -37 21 -56 20 -31 21 -42 13 -111 -5 -42 -8 -112 -6
-154 3 -76 4 -77 53 -133 35 -40 49 -65 49 -86 0 -17 -5 -29 -12 -28 -12 0
-338 399 -338 412 0 4 19 7 43 7 41 1 43 2 102 85 33 47 63 85 68 85 4 0 7
-10 7 -21z m-198 -406 c173 -215 178 -223 156 -234 -13 -6 -32 -20 -43 -30
-20 -18 -23 -16 -209 170 l-188 188 11 108 c6 60 11 113 11 118 0 5 19 -15 42
-44 23 -30 122 -154 220 -276z m2583 290 c29 -14 38 -15 44 -4 7 10 13 11 30
2 26 -14 40 10 -144 -248 l-149 -211 -36 26 c-19 14 -36 27 -38 28 -14 8 231
422 250 424 4 0 23 -8 43 -17z m-420 -703 c3 -5 1 -10 -4 -10 -6 0 -11 5 -11
10 0 6 2 10 4 10 3 0 8 -4 11 -10z m-1785 -40 c-11 -22 -28 -40 -36 -40 -18 0
-14 8 30 58 28 32 29 28 6 -18z m-545 -197 c88 -91 165 -178 171 -192 6 -14
49 -66 95 -116 69 -74 84 -95 81 -118 -2 -17 -13 -32 -30 -41 -40 -21 -97 -85
-122 -136 -24 -51 -32 -85 -34 -152 l-1 -47 -224 -235 c-123 -130 -226 -236
-230 -236 -3 0 -17 9 -31 20 l-25 19 26 28 c26 28 26 30 88 688 34 363 62 666
61 673 0 6 3 12 8 12 4 0 79 -75 167 -167z m783 -1019 c2 -42 10 -97 18 -122
19 -63 20 -416 2 -409 -8 2 -13 21 -13 46 0 33 -5 46 -24 60 -18 14 -21 22
-14 35 15 26 4 62 -22 76 -21 11 -22 15 -11 42 16 37 9 76 -14 83 -25 8 -32
43 -14 76 19 37 18 66 -2 77 -15 8 -10 17 32 59 27 27 51 51 54 51 3 1 6 -32
8 -74z m2184 -158 c8 -14 5 -23 -11 -39 -11 -12 -22 -19 -24 -16 -34 40 -102
158 -99 173 3 15 15 8 64 -40 33 -33 64 -67 70 -78z m-620 -113 l53 -19 178
-269 c163 -244 177 -270 162 -282 -16 -11 -21 -7 -47 33 -30 48 -75 74 -127
74 -20 0 -32 6 -36 19 -8 27 -37 36 -51 16 -7 -9 -18 -13 -28 -9 -9 3 -23 1
-31 -6 -18 -15 -45 -6 -45 14 0 18 -44 25 -81 13 -23 -7 -41 2 -133 65 l-106
72 27 14 c47 24 81 62 103 117 19 48 20 60 11 130 -6 42 -11 94 -11 116 l0 40
55 -59 c39 -43 69 -65 107 -79z m-2022 49 c0 -14 -256 -263 -263 -255 -8 7
241 263 255 263 5 0 8 -3 8 -8z m16 -193 c-16 -40 -8 -72 24 -89 18 -10 20
-17 14 -59 -6 -46 -5 -50 25 -72 29 -21 31 -27 26 -61 -6 -34 -3 -42 27 -70
l33 -31 -100 7 c-80 6 -104 11 -118 27 -10 10 -30 19 -44 19 -15 0 -36 8 -47
19 -34 30 -80 41 -121 30 -20 -6 -38 -9 -40 -7 -1 2 -16 33 -33 70 l-30 66 22
21 23 21 -1 -41 c-2 -82 16 -73 173 81 141 139 144 141 163 123 17 -17 17 -22
4 -54z m-1162 -66 c-3 -38 -9 -137 -13 -221 -5 -85 -12 -156 -15 -160 -13 -13
-76 29 -117 79 -24 28 -63 74 -86 101 -27 31 -43 58 -43 75 0 49 131 153 230
184 48 14 49 13 44 -58z m322 -124 c8 -17 12 -38 9 -47 -3 -9 -37 -51 -76 -92
l-70 -75 5 85 c3 47 8 125 12 175 l6 90 49 -53 c27 -30 56 -67 65 -83z m1034
-301 c16 -10 19 -19 14 -40 -6 -28 18 -61 61 -85 17 -10 16 -14 -18 -60 -19
-27 -38 -60 -42 -74 -9 -38 -72 -56 -115 -34 -16 8 -30 20 -30 24 0 21 -54 71
-88 82 -30 9 -45 24 -84 84 -25 41 -44 76 -40 79 3 3 19 6 36 6 21 0 36 7 45
21 12 21 18 22 127 16 64 -4 122 -12 134 -19z m2243 -298 c5 -4 11 -27 14 -51
6 -51 -1 -46 -41 24 l-28 49 23 -7 c13 -4 28 -11 32 -15z m692 -708 l39 -103
-27 -26 c-14 -15 -28 -25 -31 -22 -2 2 -9 49 -15 104 -6 55 -14 116 -17 135
-9 56 9 25 51 -88z m-3315 -237 c0 -2 -10 -25 -22 -50 -15 -30 -28 -44 -38
-42 -24 5 -88 -30 -95 -54 -5 -15 -12 -19 -28 -15 -12 3 -93 22 -179 43 -87
20 -155 39 -153 42 6 5 450 79 488 80 15 1 27 -1 27 -4z m4103 -98 c43 -53 72
-77 111 -93 25 -10 53 -32 71 -56 17 -22 50 -51 75 -64 24 -13 55 -37 68 -54
30 -38 91 -70 134 -70 18 0 58 7 88 15 50 13 56 13 83 -4 l28 -18 -126 -71
c-69 -40 -164 -98 -211 -129 -52 -34 -88 -52 -92 -46 -4 6 -35 52 -69 104 -59
90 -80 137 -194 442 l-29 78 23 -6 c12 -4 30 -16 40 -28z m-3891 -24 c18 -16
17 -17 -13 -30 -39 -16 -43 -13 -28 21 14 31 17 31 41 9z m3351 -280 c8 -21
13 -40 12 -42 -2 -2 -20 7 -40 19 -34 21 -35 23 -19 41 24 27 30 24 47 -18z
m285 -748 c15 -13 28 -88 38 -209 l7 -79 -115 114 c-150 148 -355 296 -436
314 l-32 7 5 51 c3 29 8 66 11 84 l5 31 252 -150 c139 -83 258 -156 265 -163z"/>
<path d="M7883 2173 c-15 -22 -18 -47 -17 -128 1 -93 31 -405 40 -414 2 -2 4
125 4 282 0 158 -2 287 -5 287 -2 0 -13 -12 -22 -27z"/>
</g>
</svg>
