<?xml version="1.0" encoding="utf-8"?>
<!-- Generator: Adobe Illustrator 24.3.0, SVG Export Plug-In . SVG Version: 6.00 Build 0)  -->
<svg version="1.1" id="Layer_1" xmlns="http://www.w3.org/2000/svg" xmlns:xlink="http://www.w3.org/1999/xlink" x="0px" y="0px"
	 viewBox="0 0 4300 2000" style="enable-background:new 0 0 4300 2000;" xml:space="preserve">
<style type="text/css">
	.st0{fill:#043340;}
	.st1{fill:#A2BFDC;}
	.st2{opacity:0.46;fill:#A3B6BF;}
	.st3{fill:#2FC670;}
</style>
<g>
	<g>
		<ellipse class="st0" cx="2150" cy="1004.26" rx="246.53" ry="110.72"/>
		<g>
			<path class="st1" d="M1932.25,1056.22c4.37,3.69,9.2,7.25,14.44,10.68c-12.77-36.74-18.3-77.53-16.97-112.41
				c-4.03,3.59-7.63,7.29-10.79,11.09C1919.05,994.33,1923.41,1026.09,1932.25,1056.22z"/>
			<path class="st1" d="M2381,965.5c-3.17-3.81-6.79-7.52-10.84-11.11c2.07,35.21-4.99,76.7-19.06,113.94
				c5.46-3.45,10.49-7.05,15.05-10.77C2376.01,1026.84,2381.15,994.54,2381,965.5z"/>
		</g>
	</g>
	<path class="st1" d="M2217,1161.09c-45.66-6.34-91.99-7.31-138.03-2.84c-105.88,10.29-143.56-148.3-128.46-228.12
		c7.7-40.7,53.06-69.87,91.36-78.93c69.41-16.42,143.56-17.45,213.33-2.81c37.44,7.97,74.47,33.37,89.04,69.87
		C2374.7,994.52,2320.43,1175.44,2217,1161.09z"/>
	<path class="st2" d="M2344.25,918.27c-7.21-18.04-19.9-33.37-35.41-45.22c5.21,6.94,9.56,14.5,12.79,22.6
		c30.45,76.25-23.82,257.17-127.25,242.82c-45.66-6.34-91.99-7.31-138.03-2.84c-25.12,2.44-46.4-4.62-64.05-17.88
		c21,27.08,49.67,44.1,86.67,40.5c46.04-4.47,92.36-3.5,138.02,2.84C2320.43,1175.44,2374.7,994.52,2344.25,918.27z"/>
	<path class="st0" d="M2251.16,1086.7c-17.64,6.85-36.53,11.06-53.93,13.44c-55.39,7.59-121.9,3.62-170.44-26.46
		c-21.8-13.51-38.73-33.68-42.83-59.56c-0.33-2.08-0.66-4.16-0.99-6.25c-7.83-49.45,28.3-94.84,78.22-98.72
		c60.2-4.68,120.67-4.68,180.87,0c49.92,3.88,86.05,49.27,78.22,98.72c-0.31,1.96-0.62,3.92-0.93,5.89
		C2313.4,1051.3,2284.5,1073.74,2251.16,1086.7z"/>
	<path class="st3" d="M2198.33,1050.67c0,9.54-19.85,26.17-44.34,26.17c-24.49,0-44.34-16.62-44.34-26.17
		c0-9.55,19.85-8.42,44.34-8.42C2178.48,1042.26,2198.33,1041.13,2198.33,1050.67z"/>
	<path class="st3" d="M2090.14,990.3c0,7.88-6.38,14.26-14.26,14.26s-14.26-6.38-14.26-14.26s6.38-14.26,14.26-14.26
		S2090.14,982.43,2090.14,990.3z"/>
	<path class="st3" d="M2238.23,985.74c0,7.88-6.38,14.26-14.26,14.26s-14.26-6.38-14.26-14.26s6.38-14.26,14.26-14.26
		S2238.23,977.87,2238.23,985.74z"/>
</g>
</svg>
