<?xml version="1.0" encoding="utf-8"?>
<!-- Generator: Adobe Illustrator 24.3.0, SVG Export Plug-In . SVG Version: 6.00 Build 0)  -->
<svg version="1.1" id="Layer_1" xmlns="http://www.w3.org/2000/svg" xmlns:xlink="http://www.w3.org/1999/xlink" x="0px" y="0px"
	 viewBox="0 0 75 75" style="enable-background:new 0 0 75 75;" xml:space="preserve">
<style type="text/css">
	.st0{fill:#043340;}
	.st1{fill:#A2BFDC;}
	.st2{opacity:0.46;fill:#A3B6BF;}
	.st3{fill:#2FC670;}
	.st4{fill:#1E191B;}
</style>
<g>
	<g>
		<g>
			<ellipse class="st0" cx="37.5" cy="45.85" rx="31.69" ry="18.16"/>
			<g>
				<path class="st1" d="M9.51,54.37c0.56,0.61,1.18,1.19,1.86,1.75C9.73,50.1,9.02,43.41,9.19,37.69c-0.52,0.59-0.98,1.2-1.39,1.82
					C7.82,44.22,8.38,49.43,9.51,54.37z"/>
				<path class="st1" d="M67.19,39.49c-0.41-0.62-0.87-1.23-1.39-1.82c0.27,5.78-0.64,12.58-2.45,18.69
					c0.7-0.57,1.35-1.16,1.93-1.77C66.55,49.56,67.21,44.26,67.19,39.49z"/>
			</g>
		</g>
		<path class="st1" d="M46.11,71.58c-5.87-1.04-11.82-1.2-17.74-0.47C14.76,72.8,9.92,46.78,11.86,33.69
			c0.99-6.68,6.82-11.46,11.74-12.95c8.92-2.69,18.45-2.86,27.42-0.46c4.81,1.31,9.57,5.47,11.44,11.46
			C66.38,44.25,59.41,73.93,46.11,71.58z"/>
		<path class="st2" d="M62.47,31.74c-0.93-2.96-2.56-5.47-4.55-7.42c0.67,1.14,1.23,2.38,1.64,3.71
			c3.91,12.51-3.06,42.19-16.36,39.83c-5.87-1.04-11.82-1.2-17.74-0.47c-3.23,0.4-5.96-0.76-8.23-2.93
			c2.7,4.44,6.38,7.23,11.14,6.64c5.92-0.73,11.87-0.57,17.74,0.47C59.41,73.93,66.38,44.25,62.47,31.74z"/>
		<path class="st0" d="M50.5,59.38c-2.27,1.12-4.7,1.81-6.93,2.2c-7.12,1.24-15.67,0.59-21.91-4.34c-2.8-2.22-4.98-5.53-5.5-9.77
			c-0.04-0.34-0.08-0.68-0.13-1.02c-1.01-8.11,3.64-15.56,10.05-16.19c7.74-0.77,15.51-0.77,23.25,0
			c6.42,0.64,11.06,8.08,10.05,16.19c-0.04,0.32-0.08,0.64-0.12,0.97C58.5,53.57,54.79,57.25,50.5,59.38z"/>
		<path class="st3" d="M43.71,53.47c0,1.57-2.55,4.29-5.7,4.29c-3.15,0-5.7-2.73-5.7-4.29c0-1.57,2.55-1.38,5.7-1.38
			C41.16,52.08,43.71,51.9,43.71,53.47z"/>
		<path class="st3" d="M29.81,43.56c0,1.29-0.82,2.34-1.83,2.34c-1.01,0-1.83-1.05-1.83-2.34s0.82-2.34,1.83-2.34
			C28.99,41.22,29.81,42.27,29.81,43.56z"/>
		<path class="st3" d="M48.84,42.81c0,1.29-0.82,2.34-1.83,2.34s-1.83-1.05-1.83-2.34s0.82-2.34,1.83-2.34S48.84,41.52,48.84,42.81z
			"/>
	</g>
	<g>
		<g>
			<polygon points="38.93,20.48 39.67,20.5 39.74,16.15 43.11,14.81 38.38,12.97 39.8,12.01 39.87,7.38 39.13,7.36 39.07,11.43 
				36.45,13.2 40.6,14.82 39.01,15.45 			"/>
		</g>
		<path d="M37.94,5.29c-0.02,1.13,0.68,2.06,1.57,2.08c0.88,0.02,1.61-0.87,1.63-2c0.02-1.13-0.68-2.06-1.57-2.08
			C38.68,3.27,37.95,4.16,37.94,5.29z"/>
		<path class="st4" d="M35.61,21.78c-0.02,1.35,1.78,2.49,4.02,2.55c2.24,0.06,4.07-0.99,4.09-2.34c0.02-1.35-1.78-2.49-4.02-2.55
			C37.46,19.38,35.63,20.43,35.61,21.78z"/>
	</g>
</g>
</svg>
