<?xml version="1.0" encoding="utf-8"?>
<!-- Generator: Adobe Illustrator 24.3.0, SVG Export Plug-In . SVG Version: 6.00 Build 0)  -->
<svg version="1.1" id="Layer_1" xmlns="http://www.w3.org/2000/svg" xmlns:xlink="http://www.w3.org/1999/xlink" x="0px" y="0px"
	 viewBox="0 0 4300 2000" style="enable-background:new 0 0 4300 2000;" xml:space="preserve">
<style type="text/css">
	.st0{fill:#043340;}
	.st1{fill:#A2BFDC;}
	.st2{opacity:0.46;fill:#A3B6BF;}
	.st3{fill:#2FC670;}
	.st4{fill:#1E191B;}
</style>
<g>
	<g>
		<g>
			<ellipse class="st0" cx="2150" cy="1044.73" rx="231.24" ry="97.28"/>
			<g>
				<path class="st1" d="M1945.75,1090.38c4.1,3.24,8.63,6.37,13.54,9.38c-11.98-32.28-17.17-68.12-15.91-98.77
					c-3.78,3.15-7.16,6.4-10.12,9.74C1933.37,1036.01,1937.46,1063.91,1945.75,1090.38z"/>
				<path class="st1" d="M2366.67,1010.67c-2.97-3.35-6.37-6.6-10.17-9.76c1.94,30.94-4.68,67.39-17.88,100.11
					c5.12-3.03,9.84-6.19,14.12-9.47C2362,1064.57,2366.81,1036.19,2366.67,1010.67z"/>
			</g>
		</g>
		<path class="st1" d="M2212.85,1182.53c-42.83-5.57-86.28-6.42-129.47-2.49c-99.32,9.04-134.66-130.31-120.5-200.44
			c7.22-35.76,49.77-61.39,85.69-69.35c65.11-14.42,134.66-15.33,200.11-2.47c35.12,7.01,69.85,29.32,83.52,61.39
			C2360.77,1036.18,2309.87,1195.14,2212.85,1182.53z"/>
		<path class="st2" d="M2332.21,969.17c-6.76-15.85-18.66-29.32-33.22-39.74c4.89,6.1,8.96,12.74,12,19.86
			c28.56,67-22.34,225.97-119.36,213.36c-42.83-5.57-86.29-6.42-129.47-2.49c-23.56,2.15-43.52-4.06-60.07-15.71
			c19.7,23.79,46.59,38.75,81.29,35.59c43.18-3.93,86.64-3.07,129.47,2.49C2309.87,1195.14,2360.77,1036.18,2332.21,969.17z"/>
		<path class="st0" d="M2244.88,1117.17c-16.55,6.02-34.27,9.72-50.58,11.81c-51.95,6.67-114.34,3.18-159.87-23.25
			c-20.45-11.87-36.33-29.59-40.17-52.33c-0.31-1.83-0.62-3.66-0.93-5.49c-7.35-43.45,26.54-83.33,73.37-86.74
			c56.47-4.11,113.19-4.11,169.66,0c46.82,3.41,80.71,43.29,73.37,86.74c-0.29,1.72-0.58,3.45-0.87,5.17
			C2303.27,1086.07,2276.17,1105.78,2244.88,1117.17z"/>
		<path class="st3" d="M2195.33,1085.52c0,8.39-18.62,22.99-41.59,22.99c-22.97,0-41.59-14.61-41.59-22.99
			c0-8.39,18.62-7.4,41.59-7.4C2176.71,1078.12,2195.33,1077.13,2195.33,1085.52z"/>
		<path class="st3" d="M2093.85,1032.47c0,6.92-5.99,12.53-13.38,12.53s-13.38-5.61-13.38-12.53c0-6.92,5.99-12.53,13.38-12.53
			S2093.85,1025.55,2093.85,1032.47z"/>
		<path class="st3" d="M2232.76,1028.46c0,6.92-5.99,12.53-13.38,12.53s-13.38-5.61-13.38-12.53c0-6.92,5.99-12.53,13.38-12.53
			S2232.76,1021.54,2232.76,1028.46z"/>
	</g>
	<g>
		<g>
			<polygon points="2143.83,908.85 2149.22,908.94 2149.7,885.65 2174.32,878.48 2139.76,868.59 2150.17,863.45 2150.68,838.68 
				2145.29,838.59 2144.84,860.37 2125.68,869.84 2156.02,878.52 2144.39,881.91 			"/>
		</g>
		<path d="M2138.33,827.48c-0.12,6.04,5,11.03,11.45,11.15c6.45,0.12,11.78-4.68,11.9-10.72c0.13-6.04-5-11.03-11.45-11.15
			C2143.78,816.65,2138.45,821.45,2138.33,827.48z"/>
		<path class="st4" d="M2120.42,915.79c-0.15,7.23,12.97,13.33,29.31,13.63c16.34,0.3,29.7-5.32,29.85-12.55
			c0.15-7.23-12.97-13.33-29.31-13.63C2133.94,902.94,2120.57,908.56,2120.42,915.79z"/>
	</g>
</g>
</svg>
